<svg width="0" height="0" class="hidden">
  <symbol xmlns="http://www.w3.org/2000/svg" fill="none" viewBox="0 0 32 32" id="icon-age">
    <path fill="#22C1C1" d="M28.75 14A2.75 2.75 0 0 0 26 11.25h-9.25V9.675a3.756 3.756 0 0 0 3-3.675c0-3.362-3.198-5.534-3.334-5.625a.75.75 0 0 0-.832 0C15.448.466 12.25 2.638 12.25 6a3.756 3.756 0 0 0 3 3.675v1.575H6A2.75 2.75 0 0 0 3.25 14v2.916c0 1.066.352 2.1 1 2.947V25A2.75 2.75 0 0 0 7 27.75h18A2.75 2.75 0 0 0 27.75 25v-5.137a4.85 4.85 0 0 0 1-2.947V14Zm-15-8c0-1.925 1.5-3.426 2.25-4.055.75.625 2.25 2.125 2.25 4.055a2.25 2.25 0 0 1-4.5 0Zm-9 8A1.25 1.25 0 0 1 6 12.75h20A1.25 1.25 0 0 1 27.25 14v2.916c0 1.79-1.416 3.285-3.157 3.333A3.25 3.25 0 0 1 20.75 17a.75.75 0 1 0-1.5 0 3.25 3.25 0 1 1-6.5 0 .75.75 0 1 0-1.5 0 3.251 3.251 0 0 1-3.343 3.25c-1.74-.049-3.157-1.544-3.157-3.334V14ZM25 26.25H7A1.25 1.25 0 0 1 5.75 25v-3.836a4.6 4.6 0 0 0 2.117.586 4.726 4.726 0 0 0 3.446-1.345c.26-.254.49-.537.687-.843a4.75 4.75 0 0 0 8 0c.198.306.43.589.69.843A4.716 4.716 0 0 0 24 21.75h.134a4.6 4.6 0 0 0 2.116-.586V25A1.25 1.25 0 0 1 25 26.25Z"></path>
  </symbol>
  <symbol xmlns="http://www.w3.org/2000/svg" fill="none" viewBox="0 0 64 64" id="icon-eating">
    <circle cx="32" cy="32" r="32" fill="#F21E84" opacity=".15"></circle>
    <path fill="#F21E84" d="M44 29.25h-1.279a10.75 10.75 0 0 0-21.442 0H20a.75.75 0 0 0-.75.75 12.794 12.794 0 0 0 7 11.383V42A1.75 1.75 0 0 0 28 43.75h8A1.75 1.75 0 0 0 37.75 42v-.617a12.793 12.793 0 0 0 7-11.383.75.75 0 0 0-.75-.75Zm-6.22-6.464c.363.29.703.608 1.019.95a10.737 10.737 0 0 0-6.444 5.514h-4.187A9.28 9.28 0 0 1 37 22.75c.26 0 .521.014.78.036Zm2.008 2.231a9.186 9.186 0 0 1 1.43 4.233H34.06a9.237 9.237 0 0 1 5.727-4.233ZM32 20.75a9.21 9.21 0 0 1 3.35.625 10.79 10.79 0 0 0-8.742 7.875h-3.826A9.261 9.261 0 0 1 32 20.75Zm4.688 19.48a.75.75 0 0 0-.438.683V42a.25.25 0 0 1-.25.25h-8a.25.25 0 0 1-.25-.25v-1.087a.75.75 0 0 0-.438-.683 11.294 11.294 0 0 1-6.537-9.48h22.45a11.294 11.294 0 0 1-6.538 9.48Z"></path>
  </symbol>
  <symbol xmlns="http://www.w3.org/2000/svg" fill="none" viewBox="0 0 64 64" id="icon-exercise">
    <circle cx="32" cy="32" r="32" fill="#F69134" opacity=".15"></circle>
    <path fill="#F69134" d="M47 31.25h-1.25V27A1.75 1.75 0 0 0 44 25.25h-2.25V24A1.75 1.75 0 0 0 40 22.25h-3A1.75 1.75 0 0 0 35.25 24v7.25h-6.5V24A1.75 1.75 0 0 0 27 22.25h-3A1.75 1.75 0 0 0 22.25 24v1.25H20A1.75 1.75 0 0 0 18.25 27v4.25H17a.75.75 0 1 0 0 1.5h1.25V37A1.75 1.75 0 0 0 20 38.75h2.25V40A1.75 1.75 0 0 0 24 41.75h3A1.75 1.75 0 0 0 28.75 40v-7.25h6.5V40A1.75 1.75 0 0 0 37 41.75h3A1.75 1.75 0 0 0 41.75 40v-1.25H44A1.75 1.75 0 0 0 45.75 37v-4.25H47a.75.75 0 1 0 0-1.5Zm-27 6a.25.25 0 0 1-.25-.25V27a.25.25 0 0 1 .25-.25h2.25v10.5H20ZM27.25 40a.25.25 0 0 1-.25.25h-3a.25.25 0 0 1-.25-.25V24a.25.25 0 0 1 .25-.25h3a.25.25 0 0 1 .25.25v16Zm13 0a.25.25 0 0 1-.25.25h-3a.25.25 0 0 1-.25-.25V24a.25.25 0 0 1 .25-.25h3a.25.25 0 0 1 .25.25v16Zm4-3a.25.25 0 0 1-.25.25h-2.25v-10.5H44a.25.25 0 0 1 .25.25v10Z"></path>
  </symbol>
</svg>